<svg width="80" height="24" viewBox="0 0 80 24" fill="none" xmlns="http://www.w3.org/2000/svg">
<g clip-path="url(#clip0_43_11)">
<path d="M6 20.25H18C18.5967 20.25 19.169 20.0129 19.591 19.591C20.0129 19.169 20.25 18.5967 20.25 18V6C20.25 5.40326 20.0129 4.83097 19.591 4.40901C19.169 3.98705 18.5967 3.75 18 3.75H6C5.40326 3.75 4.83097 3.98705 4.40901 4.40901C3.98705 4.83097 3.75 5.40326 3.75 6V18C3.75 18.5967 3.98705 19.169 4.40901 19.591C4.83097 20.0129 5.40326 20.25 6 20.25Z" fill="#D97706" fill-opacity="0.12" stroke="#D97706" stroke-width="1.5" stroke-linecap="round" stroke-linejoin="round"/>
<path d="M1.92373 13.5908L10.409 22.0761C10.831 22.498 11.4033 22.7351 12 22.7351C12.5967 22.7351 13.169 22.498 13.591 22.0761L22.0763 13.5908C22.4982 13.1688 22.7353 12.5965 22.7353 11.9998C22.7353 11.403 22.4982 10.8307 22.0763 10.4088L13.591 1.92351C13.169 1.50155 12.5967 1.2645 12 1.2645C11.4033 1.2645 10.831 1.50155 10.409 1.92351L1.92373 10.4088C1.50177 10.8307 1.26472 11.403 1.26472 11.9998C1.26472 12.5965 1.50177 13.1688 1.92373 13.5908Z" fill="#D97706" fill-opacity="0.12" stroke="#D97706" stroke-width="1.5" stroke-linecap="round" stroke-linejoin="round"/>
<path d="M13 7H11C10.5162 8.24965 9.94888 8.57809 8.28571 8.38462L8 9.76923C10.1429 11.154 10.5714 12.8463 8 14.8462L8.85714 16.3846C10.0277 16.0495 10.6921 15.9389 12 17C12.7675 16.2791 13.2628 15.9429 15.1429 16.3846L16 14.8462C13 13.0002 14.4286 10.3848 16 9.76923L15.5714 8.38462C13.718 8.68261 13.4782 8.05993 13 7Z" fill="#D97706" fill-opacity="0.75" stroke="#D97706" stroke-width="1.5" stroke-linejoin="round"/>
</g>
<path d="M28.68 11.5V5.82H29.4V10.86H32.568V11.5H28.68ZM35.0254 11.58C34.7107 11.58 34.4227 11.524 34.1614 11.412C33.9054 11.2947 33.6814 11.1373 33.4894 10.94C33.3027 10.7373 33.156 10.5053 33.0494 10.244C32.948 9.98267 32.8974 9.70533 32.8974 9.412C32.8974 9.01733 32.988 8.65733 33.1694 8.332C33.3507 8.00667 33.6014 7.74533 33.9214 7.548C34.2467 7.35067 34.6174 7.252 35.0334 7.252C35.4547 7.252 35.82 7.35333 36.1294 7.556C36.444 7.75333 36.6867 8.01467 36.8574 8.34C37.0334 8.66 37.1214 9.00667 37.1214 9.38C37.1214 9.43333 37.1187 9.48667 37.1134 9.54C37.1134 9.588 37.1107 9.62533 37.1054 9.652H33.6414C33.6627 9.924 33.7374 10.1667 33.8654 10.38C33.9987 10.588 34.1694 10.7533 34.3774 10.876C34.5854 10.9933 34.8094 11.052 35.0494 11.052C35.3054 11.052 35.5454 10.988 35.7694 10.86C35.9987 10.732 36.156 10.564 36.2414 10.356L36.8494 10.524C36.7587 10.7267 36.6227 10.908 36.4414 11.068C36.2654 11.228 36.0547 11.3533 35.8094 11.444C35.5694 11.5347 35.308 11.58 35.0254 11.58ZM33.6174 9.164H36.4654C36.444 8.892 36.3667 8.652 36.2334 8.444C36.1 8.236 35.9294 8.07333 35.7214 7.956C35.5134 7.83867 35.284 7.78 35.0334 7.78C34.788 7.78 34.5614 7.83867 34.3534 7.956C34.1454 8.07333 33.9747 8.236 33.8414 8.444C33.7134 8.652 33.6387 8.892 33.6174 9.164ZM39.3359 11.58C38.9893 11.58 38.6639 11.524 38.3599 11.412C38.0559 11.2947 37.7946 11.1213 37.5759 10.892L37.8479 10.396C38.0879 10.62 38.3279 10.78 38.5679 10.876C38.8079 10.972 39.0533 11.02 39.3039 11.02C39.5919 11.02 39.8266 10.9667 40.0079 10.86C40.1893 10.748 40.2799 10.5853 40.2799 10.372C40.2799 10.2173 40.2319 10.1027 40.1359 10.028C40.0453 9.95333 39.9146 9.892 39.7439 9.844C39.5733 9.79067 39.3706 9.732 39.1359 9.668C38.8479 9.58267 38.6053 9.492 38.4079 9.396C38.2106 9.3 38.0613 9.18 37.9599 9.036C37.8586 8.892 37.8079 8.71067 37.8079 8.492C37.8079 8.22533 37.8773 8.00133 38.0159 7.82C38.1546 7.63333 38.3439 7.492 38.5839 7.396C38.8293 7.3 39.1066 7.252 39.4159 7.252C39.7253 7.252 40.0053 7.3 40.2559 7.396C40.5066 7.492 40.7226 7.63333 40.9039 7.82L40.5839 8.308C40.4186 8.13733 40.2373 8.012 40.0399 7.932C39.8426 7.84667 39.6213 7.804 39.3759 7.804C39.2319 7.804 39.0906 7.82267 38.9519 7.86C38.8133 7.892 38.6986 7.95333 38.6079 8.044C38.5173 8.12933 38.4719 8.252 38.4719 8.412C38.4719 8.54533 38.5066 8.652 38.5759 8.732C38.6506 8.80667 38.7573 8.87067 38.8959 8.924C39.0399 8.97733 39.2133 9.036 39.4159 9.1C39.7306 9.19067 40.0026 9.28133 40.2319 9.372C40.4666 9.46267 40.6479 9.58 40.7759 9.724C40.9039 9.868 40.9679 10.068 40.9679 10.324C40.9679 10.7187 40.8186 11.028 40.5199 11.252C40.2213 11.4707 39.8266 11.58 39.3359 11.58ZM47.7994 6.46H45.8394V11.5H45.1194V6.46H43.1594V5.82H47.7994V6.46ZM47.3572 10.292C47.3572 10.0253 47.4319 9.796 47.5812 9.604C47.7359 9.40667 47.9465 9.25467 48.2132 9.148C48.4799 9.04133 48.7892 8.988 49.1412 8.988C49.3279 8.988 49.5252 9.004 49.7332 9.036C49.9412 9.06267 50.1252 9.10533 50.2852 9.164V8.86C50.2852 8.54 50.1892 8.28933 49.9972 8.108C49.8052 7.92133 49.5332 7.828 49.1812 7.828C48.9519 7.828 48.7305 7.87067 48.5172 7.956C48.3092 8.036 48.0879 8.15333 47.8532 8.308L47.5972 7.812C47.8692 7.62533 48.1412 7.48667 48.4132 7.396C48.6852 7.3 48.9679 7.252 49.2612 7.252C49.7945 7.252 50.2159 7.40133 50.5252 7.7C50.8345 7.99333 50.9892 8.404 50.9892 8.932V10.7C50.9892 10.7853 51.0052 10.8493 51.0372 10.892C51.0745 10.9293 51.1332 10.9507 51.2132 10.956V11.5C51.1439 11.5107 51.0825 11.5187 51.0292 11.524C50.9812 11.5293 50.9412 11.532 50.9092 11.532C50.7439 11.532 50.6185 11.4867 50.5332 11.396C50.4532 11.3053 50.4079 11.2093 50.3972 11.108L50.3812 10.844C50.1999 11.0787 49.9625 11.26 49.6692 11.388C49.3759 11.516 49.0852 11.58 48.7972 11.58C48.5199 11.58 48.2719 11.524 48.0532 11.412C47.8345 11.2947 47.6639 11.14 47.5412 10.948C47.4185 10.7507 47.3572 10.532 47.3572 10.292ZM50.0772 10.588C50.1412 10.5133 50.1919 10.4387 50.2292 10.364C50.2665 10.284 50.2852 10.2173 50.2852 10.164V9.644C50.1199 9.58 49.9465 9.532 49.7652 9.5C49.5839 9.46267 49.4052 9.444 49.2292 9.444C48.8719 9.444 48.5812 9.516 48.3572 9.66C48.1385 9.79867 48.0292 9.99067 48.0292 10.236C48.0292 10.3693 48.0639 10.5 48.1332 10.628C48.2079 10.7507 48.3145 10.852 48.4532 10.932C48.5972 11.012 48.7732 11.052 48.9812 11.052C49.1999 11.052 49.4079 11.0093 49.6052 10.924C49.8025 10.8333 49.9599 10.7213 50.0772 10.588ZM55.7389 11.5H55.0349V9.164C55.0349 8.72133 54.9655 8.39867 54.8269 8.196C54.6935 7.988 54.4882 7.884 54.2109 7.884C54.0189 7.884 53.8269 7.932 53.6349 8.028C53.4482 8.124 53.2802 8.25467 53.1309 8.42C52.9869 8.58 52.8829 8.76667 52.8189 8.98V11.5H52.1149V7.324H52.7549V8.22C52.8669 8.02267 53.0109 7.852 53.1869 7.708C53.3629 7.564 53.5629 7.452 53.7869 7.372C54.0109 7.292 54.2455 7.252 54.4909 7.252C54.7309 7.252 54.9309 7.29733 55.0909 7.388C55.2562 7.47333 55.3842 7.596 55.4749 7.756C55.5709 7.91067 55.6375 8.09467 55.6749 8.308C55.7175 8.52133 55.7389 8.75333 55.7389 9.004V11.5ZM60.4576 11.5H59.7536V9.164C59.7536 8.72133 59.6843 8.39867 59.5456 8.196C59.4123 7.988 59.207 7.884 58.9296 7.884C58.7376 7.884 58.5456 7.932 58.3536 8.028C58.167 8.124 57.999 8.25467 57.8496 8.42C57.7056 8.58 57.6016 8.76667 57.5376 8.98V11.5H56.8336V7.324H57.4736V8.22C57.5856 8.02267 57.7296 7.852 57.9056 7.708C58.0816 7.564 58.2816 7.452 58.5056 7.372C58.7296 7.292 58.9643 7.252 59.2096 7.252C59.4496 7.252 59.6496 7.29733 59.8096 7.388C59.975 7.47333 60.103 7.596 60.1936 7.756C60.2896 7.91067 60.3563 8.09467 60.3936 8.308C60.4363 8.52133 60.4576 8.75333 60.4576 9.004V11.5ZM63.4004 11.58C63.0857 11.58 62.7977 11.524 62.5364 11.412C62.2804 11.2947 62.0564 11.1373 61.8644 10.94C61.6777 10.7373 61.531 10.5053 61.4244 10.244C61.323 9.98267 61.2724 9.70533 61.2724 9.412C61.2724 9.01733 61.363 8.65733 61.5444 8.332C61.7257 8.00667 61.9764 7.74533 62.2964 7.548C62.6217 7.35067 62.9924 7.252 63.4084 7.252C63.8297 7.252 64.195 7.35333 64.5044 7.556C64.819 7.75333 65.0617 8.01467 65.2324 8.34C65.4084 8.66 65.4964 9.00667 65.4964 9.38C65.4964 9.43333 65.4937 9.48667 65.4884 9.54C65.4884 9.588 65.4857 9.62533 65.4804 9.652H62.0164C62.0377 9.924 62.1124 10.1667 62.2404 10.38C62.3737 10.588 62.5444 10.7533 62.7524 10.876C62.9604 10.9933 63.1844 11.052 63.4244 11.052C63.6804 11.052 63.9204 10.988 64.1444 10.86C64.3737 10.732 64.531 10.564 64.6164 10.356L65.2244 10.524C65.1337 10.7267 64.9977 10.908 64.8164 11.068C64.6404 11.228 64.4297 11.3533 64.1844 11.444C63.9444 11.5347 63.683 11.58 63.4004 11.58ZM61.9924 9.164H64.8404C64.819 8.892 64.7417 8.652 64.6084 8.444C64.475 8.236 64.3044 8.07333 64.0964 7.956C63.8884 7.83867 63.659 7.78 63.4084 7.78C63.163 7.78 62.9364 7.83867 62.7284 7.956C62.5204 8.07333 62.3497 8.236 62.2164 8.444C62.0884 8.652 62.0137 8.892 61.9924 9.164ZM68.4869 7.94C68.1349 7.94533 67.8229 8.036 67.5509 8.212C67.2843 8.38267 67.0949 8.62 66.9829 8.924V11.5H66.2789V7.324H66.9349V8.292C67.0789 8.004 67.2683 7.772 67.5029 7.596C67.7429 7.41467 67.9936 7.31333 68.2549 7.292C68.3083 7.292 68.3536 7.292 68.3909 7.292C68.4283 7.292 68.4603 7.29467 68.4869 7.3V7.94ZM69.1852 11.5V7.324H69.8892V11.5H69.1852ZM69.1852 6.54V5.66H69.8892V6.54H69.1852ZM72.8769 11.58C72.5623 11.58 72.2743 11.524 72.0129 11.412C71.7569 11.2947 71.5329 11.1373 71.3409 10.94C71.1543 10.7373 71.0076 10.5053 70.9009 10.244C70.7996 9.98267 70.7489 9.70533 70.7489 9.412C70.7489 9.01733 70.8396 8.65733 71.0209 8.332C71.2023 8.00667 71.4529 7.74533 71.7729 7.548C72.0983 7.35067 72.4689 7.252 72.8849 7.252C73.3063 7.252 73.6716 7.35333 73.9809 7.556C74.2956 7.75333 74.5383 8.01467 74.7089 8.34C74.8849 8.66 74.9729 9.00667 74.9729 9.38C74.9729 9.43333 74.9703 9.48667 74.9649 9.54C74.9649 9.588 74.9623 9.62533 74.9569 9.652H71.4929C71.5143 9.924 71.5889 10.1667 71.7169 10.38C71.8503 10.588 72.0209 10.7533 72.2289 10.876C72.4369 10.9933 72.6609 11.052 72.9009 11.052C73.1569 11.052 73.3969 10.988 73.6209 10.86C73.8503 10.732 74.0076 10.564 74.0929 10.356L74.7009 10.524C74.6103 10.7267 74.4743 10.908 74.2929 11.068C74.1169 11.228 73.9063 11.3533 73.6609 11.444C73.4209 11.5347 73.1596 11.58 72.8769 11.58ZM71.4689 9.164H74.3169C74.2956 8.892 74.2183 8.652 74.0849 8.444C73.9516 8.236 73.7809 8.07333 73.5729 7.956C73.3649 7.83867 73.1356 7.78 72.8849 7.78C72.6396 7.78 72.4129 7.83867 72.2049 7.956C71.9969 8.07333 71.8263 8.236 71.6929 8.444C71.5649 8.652 71.4903 8.892 71.4689 9.164ZM77.1875 11.58C76.8408 11.58 76.5155 11.524 76.2115 11.412C75.9075 11.2947 75.6462 11.1213 75.4275 10.892L75.6995 10.396C75.9395 10.62 76.1795 10.78 76.4195 10.876C76.6595 10.972 76.9048 11.02 77.1555 11.02C77.4435 11.02 77.6782 10.9667 77.8595 10.86C78.0408 10.748 78.1315 10.5853 78.1315 10.372C78.1315 10.2173 78.0835 10.1027 77.9875 10.028C77.8968 9.95333 77.7662 9.892 77.5955 9.844C77.4248 9.79067 77.2222 9.732 76.9875 9.668C76.6995 9.58267 76.4568 9.492 76.2595 9.396C76.0622 9.3 75.9128 9.18 75.8115 9.036C75.7102 8.892 75.6595 8.71067 75.6595 8.492C75.6595 8.22533 75.7288 8.00133 75.8675 7.82C76.0062 7.63333 76.1955 7.492 76.4355 7.396C76.6808 7.3 76.9582 7.252 77.2675 7.252C77.5768 7.252 77.8568 7.3 78.1075 7.396C78.3582 7.492 78.5742 7.63333 78.7555 7.82L78.4355 8.308C78.2702 8.13733 78.0888 8.012 77.8915 7.932C77.6942 7.84667 77.4728 7.804 77.2275 7.804C77.0835 7.804 76.9422 7.82267 76.8035 7.86C76.6648 7.892 76.5502 7.95333 76.4595 8.044C76.3688 8.12933 76.3235 8.252 76.3235 8.412C76.3235 8.54533 76.3582 8.652 76.4275 8.732C76.5022 8.80667 76.6088 8.87067 76.7475 8.924C76.8915 8.97733 77.0648 9.036 77.2675 9.1C77.5822 9.19067 77.8542 9.28133 78.0835 9.372C78.3182 9.46267 78.4995 9.58 78.6275 9.724C78.7555 9.868 78.8195 10.068 78.8195 10.324C78.8195 10.7187 78.6702 11.028 78.3715 11.252C78.0728 11.4707 77.6782 11.58 77.1875 11.58Z" fill="#D97706"/>
<path d="M28.34 17.5V13.95H30.75V14.67H29.16V15.435H30.47V16.1H29.16V17.5H28.34ZM35.6317 16.78V17.5H33.1367V13.95H35.5867V14.67H33.9567V15.36H35.3567V16.025H33.9567V16.78H35.6317ZM40.2098 14.99C40.1998 14.9733 40.1648 14.9483 40.1048 14.915C40.0448 14.8783 39.9698 14.84 39.8798 14.8C39.7898 14.76 39.6915 14.725 39.5848 14.695C39.4782 14.665 39.3715 14.65 39.2648 14.65C39.1248 14.65 39.0165 14.675 38.9398 14.725C38.8632 14.7717 38.8248 14.845 38.8248 14.945C38.8248 15.025 38.8532 15.0883 38.9098 15.135C38.9698 15.1817 39.0548 15.2233 39.1648 15.26C39.2748 15.2933 39.4098 15.3333 39.5698 15.38C39.7965 15.44 39.9932 15.5133 40.1598 15.6C40.3265 15.6833 40.4532 15.7917 40.5398 15.925C40.6298 16.0583 40.6748 16.235 40.6748 16.455C40.6748 16.655 40.6382 16.825 40.5648 16.965C40.4915 17.1017 40.3915 17.2133 40.2648 17.3C40.1415 17.3833 39.9998 17.445 39.8398 17.485C39.6798 17.5217 39.5148 17.54 39.3448 17.54C39.1715 17.54 38.9932 17.5233 38.8098 17.49C38.6298 17.4533 38.4565 17.4033 38.2898 17.34C38.1232 17.2733 37.9698 17.1933 37.8298 17.1L38.1898 16.385C38.2032 16.4017 38.2465 16.4333 38.3198 16.48C38.3932 16.5233 38.4832 16.57 38.5898 16.62C38.6998 16.6667 38.8215 16.7083 38.9548 16.745C39.0882 16.7817 39.2232 16.8 39.3598 16.8C39.5065 16.8 39.6148 16.7767 39.6848 16.73C39.7582 16.6833 39.7948 16.6183 39.7948 16.535C39.7948 16.445 39.7565 16.375 39.6798 16.325C39.6065 16.275 39.5048 16.23 39.3748 16.19C39.2482 16.15 39.1015 16.105 38.9348 16.055C38.7182 15.9883 38.5382 15.9133 38.3948 15.83C38.2548 15.7467 38.1498 15.645 38.0798 15.525C38.0132 15.405 37.9798 15.255 37.9798 15.075C37.9798 14.825 38.0382 14.615 38.1548 14.445C38.2748 14.2717 38.4348 14.1417 38.6348 14.055C38.8348 13.965 39.0532 13.92 39.2898 13.92C39.4565 13.92 39.6165 13.94 39.7698 13.98C39.9265 14.02 40.0715 14.07 40.2048 14.13C40.3415 14.19 40.4632 14.25 40.5698 14.31L40.2098 14.99Z" fill="#D97706" fill-opacity="0.75"/>
<defs>
<clipPath id="clip0_43_11">
<rect width="24" height="24" fill="white"/>
</clipPath>
</defs>
</svg>
