<svg width="24" height="24" viewBox="0 0 24 24" fill="none" xmlns="http://www.w3.org/2000/svg">
<g clip-path="url(#clip0_42_2)">
<path d="M6 20.25H18C18.5967 20.25 19.169 20.0129 19.591 19.591C20.0129 19.169 20.25 18.5967 20.25 18V6C20.25 5.40326 20.0129 4.83097 19.591 4.40901C19.169 3.98705 18.5967 3.75 18 3.75H6C5.40326 3.75 4.83097 3.98705 4.40901 4.40901C3.98705 4.83097 3.75 5.40326 3.75 6V18C3.75 18.5967 3.98705 19.169 4.40901 19.591C4.83097 20.0129 5.40326 20.25 6 20.25Z" fill="#D97706" fill-opacity="0.12" stroke="#D97706" stroke-width="1.5" stroke-linecap="round" stroke-linejoin="round"/>
<path d="M1.92373 13.5908L10.409 22.0761C10.831 22.498 11.4033 22.7351 12 22.7351C12.5967 22.7351 13.169 22.498 13.591 22.0761L22.0763 13.5908C22.4982 13.1688 22.7353 12.5965 22.7353 11.9998C22.7353 11.403 22.4982 10.8307 22.0763 10.4088L13.591 1.92351C13.169 1.50155 12.5967 1.2645 12 1.2645C11.4033 1.2645 10.831 1.50155 10.409 1.92351L1.92373 10.4088C1.50177 10.8307 1.26472 11.403 1.26472 11.9998C1.26472 12.5965 1.50177 13.1688 1.92373 13.5908Z" fill="#D97706" fill-opacity="0.12" stroke="#D97706" stroke-width="1.5" stroke-linecap="round" stroke-linejoin="round"/>
<path d="M13 7H11C10.5162 8.24965 9.94888 8.57809 8.28571 8.38462L8 9.76923C10.1429 11.154 10.5714 12.8463 8 14.8462L8.85714 16.3846C10.0277 16.0495 10.6921 15.9389 12 17C12.7675 16.2791 13.2628 15.9429 15.1429 16.3846L16 14.8462C13 13.0002 14.4286 10.3848 16 9.76923L15.5714 8.38462C13.718 8.68261 13.4782 8.05993 13 7Z" fill="#D97706" fill-opacity="0.75" stroke="#D97706" stroke-width="1.5" stroke-linejoin="round"/>
</g>
<defs>
<clipPath id="clip0_42_2">
<rect width="24" height="24" fill="white"/>
</clipPath>
</defs>
</svg>
