<svg width="52" height="43" viewBox="0 0 52 43" fill="none" xmlns="http://www.w3.org/2000/svg">
<g clip-path="url(#clip0_43_12)">
<path d="M20 20.25H32C32.5967 20.25 33.169 20.0129 33.591 19.591C34.0129 19.169 34.25 18.5967 34.25 18V6C34.25 5.40326 34.0129 4.83097 33.591 4.40901C33.169 3.98705 32.5967 3.75 32 3.75H20C19.4033 3.75 18.831 3.98705 18.409 4.40901C17.9871 4.83097 17.75 5.40326 17.75 6V18C17.75 18.5967 17.9871 19.169 18.409 19.591C18.831 20.0129 19.4033 20.25 20 20.25Z" fill="#D97706" fill-opacity="0.12" stroke="#D97706" stroke-width="1.5" stroke-linecap="round" stroke-linejoin="round"/>
<path d="M15.9237 13.5908L24.409 22.0761C24.831 22.498 25.4033 22.7351 26 22.7351C26.5967 22.7351 27.169 22.498 27.591 22.0761L36.0763 13.5908C36.4982 13.1688 36.7353 12.5965 36.7353 11.9998C36.7353 11.403 36.4982 10.8307 36.0763 10.4088L27.591 1.92351C27.169 1.50155 26.5967 1.2645 26 1.2645C25.4033 1.2645 24.831 1.50155 24.409 1.92351L15.9237 10.4088C15.5018 10.8307 15.2647 11.403 15.2647 11.9998C15.2647 12.5965 15.5018 13.1688 15.9237 13.5908Z" fill="#D97706" fill-opacity="0.12" stroke="#D97706" stroke-width="1.5" stroke-linecap="round" stroke-linejoin="round"/>
<path d="M27 7H25C24.5162 8.24965 23.9489 8.57809 22.2857 8.38462L22 9.76923C24.1429 11.154 24.5714 12.8463 22 14.8462L22.8571 16.3846C24.0277 16.0495 24.6921 15.9389 26 17C26.7675 16.2791 27.2628 15.9429 29.1429 16.3846L30 14.8462C27 13.0002 28.4286 10.3848 30 9.76923L29.5714 8.38462C27.718 8.68261 27.4782 8.05993 27 7Z" fill="#D97706" fill-opacity="0.75" stroke="#D97706" stroke-width="1.5" stroke-linejoin="round"/>
</g>
<path d="M1.13313 35V29.32H1.85313V34.36H5.02113V35H1.13313ZM7.4785 35.08C7.16383 35.08 6.87583 35.024 6.6145 34.912C6.3585 34.7947 6.1345 34.6373 5.9425 34.44C5.75583 34.2373 5.60917 34.0053 5.5025 33.744C5.40117 33.4827 5.3505 33.2053 5.3505 32.912C5.3505 32.5173 5.44117 32.1573 5.6225 31.832C5.80383 31.5067 6.0545 31.2453 6.3745 31.048C6.69983 30.8507 7.0705 30.752 7.4865 30.752C7.90783 30.752 8.27317 30.8533 8.5825 31.056C8.89717 31.2533 9.13983 31.5147 9.3105 31.84C9.4865 32.16 9.5745 32.5067 9.5745 32.88C9.5745 32.9333 9.57183 32.9867 9.5665 33.04C9.5665 33.088 9.56383 33.1253 9.5585 33.152H6.0945C6.11583 33.424 6.1905 33.6667 6.3185 33.88C6.45183 34.088 6.6225 34.2533 6.8305 34.376C7.0385 34.4933 7.2625 34.552 7.5025 34.552C7.7585 34.552 7.9985 34.488 8.2225 34.36C8.45183 34.232 8.60917 34.064 8.6945 33.856L9.3025 34.024C9.21183 34.2267 9.07583 34.408 8.8945 34.568C8.7185 34.728 8.50783 34.8533 8.2625 34.944C8.0225 35.0347 7.76117 35.08 7.4785 35.08ZM6.0705 32.664H8.9185C8.89717 32.392 8.81983 32.152 8.6865 31.944C8.55317 31.736 8.3825 31.5733 8.1745 31.456C7.9665 31.3387 7.73717 31.28 7.4865 31.28C7.24117 31.28 7.0145 31.3387 6.8065 31.456C6.5985 31.5733 6.42783 31.736 6.2945 31.944C6.1665 32.152 6.09183 32.392 6.0705 32.664ZM11.7891 35.08C11.4424 35.08 11.1171 35.024 10.8131 34.912C10.5091 34.7947 10.2477 34.6213 10.0291 34.392L10.3011 33.896C10.5411 34.12 10.7811 34.28 11.0211 34.376C11.2611 34.472 11.5064 34.52 11.7571 34.52C12.0451 34.52 12.2797 34.4667 12.4611 34.36C12.6424 34.248 12.7331 34.0853 12.7331 33.872C12.7331 33.7173 12.6851 33.6027 12.5891 33.528C12.4984 33.4533 12.3677 33.392 12.1971 33.344C12.0264 33.2907 11.8237 33.232 11.5891 33.168C11.3011 33.0827 11.0584 32.992 10.8611 32.896C10.6637 32.8 10.5144 32.68 10.4131 32.536C10.3117 32.392 10.2611 32.2107 10.2611 31.992C10.2611 31.7253 10.3304 31.5013 10.4691 31.32C10.6077 31.1333 10.7971 30.992 11.0371 30.896C11.2824 30.8 11.5597 30.752 11.8691 30.752C12.1784 30.752 12.4584 30.8 12.7091 30.896C12.9597 30.992 13.1757 31.1333 13.3571 31.32L13.0371 31.808C12.8717 31.6373 12.6904 31.512 12.4931 31.432C12.2957 31.3467 12.0744 31.304 11.8291 31.304C11.6851 31.304 11.5437 31.3227 11.4051 31.36C11.2664 31.392 11.1517 31.4533 11.0611 31.544C10.9704 31.6293 10.9251 31.752 10.9251 31.912C10.9251 32.0453 10.9597 32.152 11.0291 32.232C11.1037 32.3067 11.2104 32.3707 11.3491 32.424C11.4931 32.4773 11.6664 32.536 11.8691 32.6C12.1837 32.6907 12.4557 32.7813 12.6851 32.872C12.9197 32.9627 13.1011 33.08 13.2291 33.224C13.3571 33.368 13.4211 33.568 13.4211 33.824C13.4211 34.2187 13.2717 34.528 12.9731 34.752C12.6744 34.9707 12.2797 35.08 11.7891 35.08ZM20.2526 29.96H18.2926V35H17.5726V29.96H15.6126V29.32H20.2526V29.96ZM19.8103 33.792C19.8103 33.5253 19.885 33.296 20.0343 33.104C20.189 32.9067 20.3996 32.7547 20.6663 32.648C20.933 32.5413 21.2423 32.488 21.5943 32.488C21.781 32.488 21.9783 32.504 22.1863 32.536C22.3943 32.5627 22.5783 32.6053 22.7383 32.664V32.36C22.7383 32.04 22.6423 31.7893 22.4503 31.608C22.2583 31.4213 21.9863 31.328 21.6343 31.328C21.405 31.328 21.1836 31.3707 20.9703 31.456C20.7623 31.536 20.541 31.6533 20.3063 31.808L20.0503 31.312C20.3223 31.1253 20.5943 30.9867 20.8663 30.896C21.1383 30.8 21.421 30.752 21.7143 30.752C22.2476 30.752 22.669 30.9013 22.9783 31.2C23.2876 31.4933 23.4423 31.904 23.4423 32.432V34.2C23.4423 34.2853 23.4583 34.3493 23.4903 34.392C23.5276 34.4293 23.5863 34.4507 23.6663 34.456V35C23.597 35.0107 23.5356 35.0187 23.4823 35.024C23.4343 35.0293 23.3943 35.032 23.3623 35.032C23.197 35.032 23.0716 34.9867 22.9863 34.896C22.9063 34.8053 22.861 34.7093 22.8503 34.608L22.8343 34.344C22.653 34.5787 22.4156 34.76 22.1223 34.888C21.829 35.016 21.5383 35.08 21.2503 35.08C20.973 35.08 20.725 35.024 20.5063 34.912C20.2876 34.7947 20.117 34.64 19.9943 34.448C19.8716 34.2507 19.8103 34.032 19.8103 33.792ZM22.5303 34.088C22.5943 34.0133 22.645 33.9387 22.6823 33.864C22.7196 33.784 22.7383 33.7173 22.7383 33.664V33.144C22.573 33.08 22.3996 33.032 22.2183 33C22.037 32.9627 21.8583 32.944 21.6823 32.944C21.325 32.944 21.0343 33.016 20.8103 33.16C20.5916 33.2987 20.4823 33.4907 20.4823 33.736C20.4823 33.8693 20.517 34 20.5863 34.128C20.661 34.2507 20.7676 34.352 20.9063 34.432C21.0503 34.512 21.2263 34.552 21.4343 34.552C21.653 34.552 21.861 34.5093 22.0583 34.424C22.2556 34.3333 22.413 34.2213 22.5303 34.088ZM28.192 35H27.488V32.664C27.488 32.2213 27.4187 31.8987 27.28 31.696C27.1467 31.488 26.9413 31.384 26.664 31.384C26.472 31.384 26.28 31.432 26.088 31.528C25.9013 31.624 25.7333 31.7547 25.584 31.92C25.44 32.08 25.336 32.2667 25.272 32.48V35H24.568V30.824H25.208V31.72C25.32 31.5227 25.464 31.352 25.64 31.208C25.816 31.064 26.016 30.952 26.24 30.872C26.464 30.792 26.6987 30.752 26.944 30.752C27.184 30.752 27.384 30.7973 27.544 30.888C27.7093 30.9733 27.8373 31.096 27.928 31.256C28.024 31.4107 28.0907 31.5947 28.128 31.808C28.1707 32.0213 28.192 32.2533 28.192 32.504V35ZM32.9108 35H32.2068V32.664C32.2068 32.2213 32.1374 31.8987 31.9988 31.696C31.8654 31.488 31.6601 31.384 31.3828 31.384C31.1908 31.384 30.9988 31.432 30.8068 31.528C30.6201 31.624 30.4521 31.7547 30.3028 31.92C30.1588 32.08 30.0548 32.2667 29.9908 32.48V35H29.2868V30.824H29.9268V31.72C30.0388 31.5227 30.1828 31.352 30.3588 31.208C30.5348 31.064 30.7348 30.952 30.9588 30.872C31.1828 30.792 31.4174 30.752 31.6628 30.752C31.9028 30.752 32.1028 30.7973 32.2628 30.888C32.4281 30.9733 32.5561 31.096 32.6468 31.256C32.7428 31.4107 32.8094 31.5947 32.8468 31.808C32.8894 32.0213 32.9108 32.2533 32.9108 32.504V35ZM35.8535 35.08C35.5388 35.08 35.2508 35.024 34.9895 34.912C34.7335 34.7947 34.5095 34.6373 34.3175 34.44C34.1308 34.2373 33.9842 34.0053 33.8775 33.744C33.7762 33.4827 33.7255 33.2053 33.7255 32.912C33.7255 32.5173 33.8162 32.1573 33.9975 31.832C34.1788 31.5067 34.4295 31.2453 34.7495 31.048C35.0748 30.8507 35.4455 30.752 35.8615 30.752C36.2828 30.752 36.6482 30.8533 36.9575 31.056C37.2722 31.2533 37.5148 31.5147 37.6855 31.84C37.8615 32.16 37.9495 32.5067 37.9495 32.88C37.9495 32.9333 37.9468 32.9867 37.9415 33.04C37.9415 33.088 37.9388 33.1253 37.9335 33.152H34.4695C34.4908 33.424 34.5655 33.6667 34.6935 33.88C34.8268 34.088 34.9975 34.2533 35.2055 34.376C35.4135 34.4933 35.6375 34.552 35.8775 34.552C36.1335 34.552 36.3735 34.488 36.5975 34.36C36.8268 34.232 36.9842 34.064 37.0695 33.856L37.6775 34.024C37.5868 34.2267 37.4508 34.408 37.2695 34.568C37.0935 34.728 36.8828 34.8533 36.6375 34.944C36.3975 35.0347 36.1362 35.08 35.8535 35.08ZM34.4455 32.664H37.2935C37.2722 32.392 37.1948 32.152 37.0615 31.944C36.9282 31.736 36.7575 31.5733 36.5495 31.456C36.3415 31.3387 36.1122 31.28 35.8615 31.28C35.6162 31.28 35.3895 31.3387 35.1815 31.456C34.9735 31.5733 34.8028 31.736 34.6695 31.944C34.5415 32.152 34.4668 32.392 34.4455 32.664ZM40.9401 31.44C40.5881 31.4453 40.2761 31.536 40.0041 31.712C39.7374 31.8827 39.5481 32.12 39.4361 32.424V35H38.7321V30.824H39.3881V31.792C39.5321 31.504 39.7214 31.272 39.9561 31.096C40.1961 30.9147 40.4467 30.8133 40.7081 30.792C40.7614 30.792 40.8067 30.792 40.8441 30.792C40.8814 30.792 40.9134 30.7947 40.9401 30.8V31.44ZM41.6383 35V30.824H42.3423V35H41.6383ZM41.6383 30.04V29.16H42.3423V30.04H41.6383ZM45.3301 35.08C45.0154 35.08 44.7274 35.024 44.4661 34.912C44.2101 34.7947 43.9861 34.6373 43.7941 34.44C43.6074 34.2373 43.4607 34.0053 43.3541 33.744C43.2527 33.4827 43.2021 33.2053 43.2021 32.912C43.2021 32.5173 43.2927 32.1573 43.4741 31.832C43.6554 31.5067 43.9061 31.2453 44.2261 31.048C44.5514 30.8507 44.9221 30.752 45.3381 30.752C45.7594 30.752 46.1247 30.8533 46.4341 31.056C46.7487 31.2533 46.9914 31.5147 47.1621 31.84C47.3381 32.16 47.4261 32.5067 47.4261 32.88C47.4261 32.9333 47.4234 32.9867 47.4181 33.04C47.4181 33.088 47.4154 33.1253 47.4101 33.152H43.9461C43.9674 33.424 44.0421 33.6667 44.1701 33.88C44.3034 34.088 44.4741 34.2533 44.6821 34.376C44.8901 34.4933 45.1141 34.552 45.3541 34.552C45.6101 34.552 45.8501 34.488 46.0741 34.36C46.3034 34.232 46.4607 34.064 46.5461 33.856L47.1541 34.024C47.0634 34.2267 46.9274 34.408 46.7461 34.568C46.5701 34.728 46.3594 34.8533 46.1141 34.944C45.8741 35.0347 45.6127 35.08 45.3301 35.08ZM43.9221 32.664H46.7701C46.7487 32.392 46.6714 32.152 46.5381 31.944C46.4047 31.736 46.2341 31.5733 46.0261 31.456C45.8181 31.3387 45.5887 31.28 45.3381 31.28C45.0927 31.28 44.8661 31.3387 44.6581 31.456C44.4501 31.5733 44.2794 31.736 44.1461 31.944C44.0181 32.152 43.9434 32.392 43.9221 32.664ZM49.6406 35.08C49.294 35.08 48.9686 35.024 48.6646 34.912C48.3606 34.7947 48.0993 34.6213 47.8806 34.392L48.1526 33.896C48.3926 34.12 48.6326 34.28 48.8726 34.376C49.1126 34.472 49.358 34.52 49.6086 34.52C49.8966 34.52 50.1313 34.4667 50.3126 34.36C50.494 34.248 50.5846 34.0853 50.5846 33.872C50.5846 33.7173 50.5366 33.6027 50.4406 33.528C50.35 33.4533 50.2193 33.392 50.0486 33.344C49.878 33.2907 49.6753 33.232 49.4406 33.168C49.1526 33.0827 48.91 32.992 48.7126 32.896C48.5153 32.8 48.366 32.68 48.2646 32.536C48.1633 32.392 48.1126 32.2107 48.1126 31.992C48.1126 31.7253 48.182 31.5013 48.3206 31.32C48.4593 31.1333 48.6486 30.992 48.8886 30.896C49.134 30.8 49.4113 30.752 49.7206 30.752C50.03 30.752 50.31 30.8 50.5606 30.896C50.8113 30.992 51.0273 31.1333 51.2086 31.32L50.8886 31.808C50.7233 31.6373 50.542 31.512 50.3446 31.432C50.1473 31.3467 49.926 31.304 49.6806 31.304C49.5366 31.304 49.3953 31.3227 49.2566 31.36C49.118 31.392 49.0033 31.4533 48.9126 31.544C48.822 31.6293 48.7766 31.752 48.7766 31.912C48.7766 32.0453 48.8113 32.152 48.8806 32.232C48.9553 32.3067 49.062 32.3707 49.2006 32.424C49.3446 32.4773 49.518 32.536 49.7206 32.6C50.0353 32.6907 50.3073 32.7813 50.5366 32.872C50.7713 32.9627 50.9526 33.08 51.0806 33.224C51.2086 33.368 51.2726 33.568 51.2726 33.824C51.2726 34.2187 51.1233 34.528 50.8246 34.752C50.526 34.9707 50.1313 35.08 49.6406 35.08Z" fill="#D97706"/>
<path d="M19.932 41V37.45H22.342V38.17H20.752V38.935H22.062V39.6H20.752V41H19.932ZM27.2237 40.28V41H24.7287V37.45H27.1787V38.17H25.5487V38.86H26.9487V39.525H25.5487V40.28H27.2237ZM31.8018 38.49C31.7918 38.4733 31.7568 38.4483 31.6968 38.415C31.6368 38.3783 31.5618 38.34 31.4718 38.3C31.3818 38.26 31.2835 38.225 31.1768 38.195C31.0702 38.165 30.9635 38.15 30.8568 38.15C30.7168 38.15 30.6085 38.175 30.5318 38.225C30.4552 38.2717 30.4168 38.345 30.4168 38.445C30.4168 38.525 30.4452 38.5883 30.5018 38.635C30.5618 38.6817 30.6468 38.7233 30.7568 38.76C30.8668 38.7933 31.0018 38.8333 31.1618 38.88C31.3885 38.94 31.5852 39.0133 31.7518 39.1C31.9185 39.1833 32.0452 39.2917 32.1318 39.425C32.2218 39.5583 32.2668 39.735 32.2668 39.955C32.2668 40.155 32.2302 40.325 32.1568 40.465C32.0835 40.6017 31.9835 40.7133 31.8568 40.8C31.7335 40.8833 31.5918 40.945 31.4318 40.985C31.2718 41.0217 31.1068 41.04 30.9368 41.04C30.7635 41.04 30.5852 41.0233 30.4018 40.99C30.2218 40.9533 30.0485 40.9033 29.8818 40.84C29.7152 40.7733 29.5618 40.6933 29.4218 40.6L29.7818 39.885C29.7952 39.9017 29.8385 39.9333 29.9118 39.98C29.9852 40.0233 30.0752 40.07 30.1818 40.12C30.2918 40.1667 30.4135 40.2083 30.5468 40.245C30.6802 40.2817 30.8152 40.3 30.9518 40.3C31.0985 40.3 31.2068 40.2767 31.2768 40.23C31.3502 40.1833 31.3868 40.1183 31.3868 40.035C31.3868 39.945 31.3485 39.875 31.2718 39.825C31.1985 39.775 31.0968 39.73 30.9668 39.69C30.8402 39.65 30.6935 39.605 30.5268 39.555C30.3102 39.4883 30.1302 39.4133 29.9868 39.33C29.8468 39.2467 29.7418 39.145 29.6718 39.025C29.6052 38.905 29.5718 38.755 29.5718 38.575C29.5718 38.325 29.6302 38.115 29.7468 37.945C29.8668 37.7717 30.0268 37.6417 30.2268 37.555C30.4268 37.465 30.6452 37.42 30.8818 37.42C31.0485 37.42 31.2085 37.44 31.3618 37.48C31.5185 37.52 31.6635 37.57 31.7968 37.63C31.9335 37.69 32.0552 37.75 32.1618 37.81L31.8018 38.49Z" fill="#D97706" fill-opacity="0.75"/>
<defs>
<clipPath id="clip0_43_12">
<rect width="24" height="24" fill="white" transform="translate(14)"/>
</clipPath>
</defs>
</svg>
